<?xml version="1.0" encoding="UTF-8" standalone="no"?><!DOCTYPE svg PUBLIC "-//W3C//DTD SVG 1.1//EN" "http://www.w3.org/Graphics/SVG/1.1/DTD/svg11.dtd"><svg width="100%" height="100%" viewBox="0 0 425 434" version="1.1" xmlns="http://www.w3.org/2000/svg" xmlns:xlink="http://www.w3.org/1999/xlink" xml:space="preserve" xmlns:serif="http://www.serif.com/" style="fill-rule:evenodd;clip-rule:evenodd;stroke-linejoin:round;stroke-miterlimit:1.5;"><g id="inorder"><path d="M212.35,365.61l135,-296.496" style="fill:none;stroke:#7a73ef;stroke-opacity:0.5;stroke-width:7.64px;stroke-dasharray:7.64,7.64;"/><path d="M212.35,365.61l-135,-296.496" style="fill:none;stroke:#7a73ef;stroke-opacity:0.5;stroke-width:7.64px;stroke-dasharray:7.64,7.64;"/><path d="M106.831,311.397l38.019,6.428l-17.669,-34.272c1.874,12.049 -8.301,25.971 -20.35,27.844Z" style="fill:#7a73ef;"/><path d="M122.575,301.545c-49.36,-40.568 -76.016,-96.026 -73.658,-155.189" style="fill:none;stroke:#7a73ef;stroke-width:6.8px;"/><path d="M357.285,180.187l18.499,-33.831l15.965,35.097c-8.299,-8.932 -25.531,-9.566 -34.464,-1.266Z" style="fill:#7a73ef;"/><path d="M279.85,317.825c54.775,-35.565 88.42,-87.085 94.921,-143.898" style="fill:none;stroke:#7a73ef;stroke-width:6.8px;"/><circle cx="77.35" cy="67.5" r="67.5" style="fill:#5c2b8c;"/><circle cx="347.35" cy="67.5" r="67.5" style="fill:#5c2b8c;"/><circle cx="212.35" cy="365.61" r="67.5" style="fill:#5c2b8c;"/><g transform="matrix(45.8333,0,0,45.8333,82.8782,82.9531)"><path d="M0.177,-0.397l-0,0.385c-0,0.002 -0.001,0.005 -0.002,0.006c-0.001,0.002 -0.004,0.004 -0.007,0.005c-0.003,0.001 -0.007,0.002 -0.012,0.003c-0.005,0.001 -0.012,0.001 -0.02,0.001c-0.008,-0 -0.014,-0 -0.019,-0.001c-0.006,-0.001 -0.01,-0.002 -0.013,-0.003c-0.003,-0.001 -0.005,-0.003 -0.006,-0.005c-0.002,-0.001 -0.002,-0.004 -0.002,-0.006l-0,-0.385l-0.062,-0c-0.006,-0 -0.009,-0.003 -0.012,-0.008c-0.003,-0.005 -0.004,-0.014 -0.004,-0.026c0,-0.006 0,-0.011 0.001,-0.015c0.001,-0.005 0.002,-0.008 0.003,-0.011c0.001,-0.003 0.003,-0.005 0.005,-0.006c0.002,-0.001 0.004,-0.001 0.007,-0.001l0.062,-0l-0,-0.046c-0,-0.03 0.003,-0.057 0.008,-0.079c0.006,-0.022 0.015,-0.04 0.026,-0.054c0.012,-0.014 0.026,-0.024 0.044,-0.031c0.018,-0.006 0.039,-0.01 0.063,-0.01c0.012,0 0.024,0.002 0.035,0.004c0.011,0.003 0.02,0.005 0.024,0.007c0.005,0.002 0.009,0.004 0.011,0.006c0.002,0.002 0.003,0.004 0.004,0.008c0.001,0.003 0.002,0.006 0.003,0.011c0,0.004 0,0.009 0,0.016c0,0.006 0,0.011 -0,0.015c-0.001,0.003 -0.002,0.006 -0.002,0.009c-0.001,0.002 -0.003,0.003 -0.004,0.004c-0.001,0.001 -0.003,0.001 -0.004,0.001c-0.003,0 -0.006,-0 -0.009,-0.002c-0.003,-0.001 -0.007,-0.003 -0.012,-0.005c-0.005,-0.001 -0.011,-0.003 -0.018,-0.005c-0.006,-0.001 -0.014,-0.002 -0.023,-0.002c-0.012,0 -0.022,0.002 -0.03,0.006c-0.009,0.004 -0.015,0.01 -0.021,0.018c-0.005,0.009 -0.009,0.02 -0.011,0.033c-0.003,0.013 -0.004,0.029 -0.004,0.048l0,0.048l0.199,-0l-0,-0.105c-0,-0.002 0,-0.004 0.001,-0.006c0.002,-0.002 0.004,-0.004 0.007,-0.005c0.003,-0.002 0.007,-0.003 0.012,-0.003c0.005,-0.001 0.012,-0.001 0.02,-0.001c0.008,-0 0.014,-0 0.02,0.001c0.005,0 0.009,0.001 0.012,0.003c0.003,0.001 0.005,0.003 0.006,0.005c0.001,0.002 0.002,0.004 0.002,0.006l0,0.105l0.112,-0c0.003,-0 0.005,0 0.007,0.001c0.003,0.001 0.004,0.003 0.006,0.006c0.001,0.003 0.002,0.006 0.003,0.011c0.001,0.004 0.001,0.009 0.001,0.015c-0,0.012 -0.001,0.021 -0.004,0.026c-0.003,0.005 -0.007,0.008 -0.012,0.008l-0.113,-0l0,0.245c0,0.03 0.004,0.053 0.013,0.068c0.009,0.016 0.025,0.023 0.049,0.023c0.007,0 0.013,-0 0.019,-0.002c0.006,-0.001 0.012,-0.003 0.016,-0.004c0.005,-0.002 0.009,-0.004 0.012,-0.005c0.004,-0.001 0.006,-0.002 0.009,-0.002c0.002,-0 0.003,0 0.005,0.001c0.001,0.001 0.002,0.002 0.003,0.005c0.001,0.002 0.001,0.005 0.002,0.009c0.001,0.004 0.001,0.009 0.001,0.015c-0,0.009 -0.001,0.016 -0.002,0.022c-0.002,0.006 -0.004,0.01 -0.006,0.012c-0.003,0.003 -0.007,0.005 -0.012,0.008c-0.004,0.002 -0.01,0.004 -0.017,0.005c-0.007,0.002 -0.014,0.003 -0.021,0.004c-0.008,0.001 -0.015,0.001 -0.023,0.001c-0.023,0 -0.042,-0.003 -0.059,-0.009c-0.016,-0.006 -0.029,-0.015 -0.04,-0.027c-0.01,-0.012 -0.018,-0.028 -0.022,-0.046c-0.005,-0.019 -0.007,-0.041 -0.007,-0.067l-0,-0.256l-0.198,-0Z" style="fill:#fff;fill-rule:nonzero;"/></g><g transform="matrix(45.8333,0,0,45.8333,82.8782,82.9531)"></g><g transform="matrix(45.8333,0,0,45.8333,96.3319,82.9531)"></g><g transform="matrix(45.8333,0,0,45.8333,111.099,82.9531)"></g><text x="41.207px" y="82.953px" style="font-family:'Calibri', sans-serif;font-size:45.833px;fill:#fff;">Le</text><g transform="matrix(45.8333,0,0,45.8333,254.972,379.876)"></g><text x="167.334px" y="379.876px" style="font-family:'Calibri', sans-serif;font-size:45.833px;fill:#fff;">R<tspan x="191.28px 215.45px " y="379.876px 379.876px ">oo</tspan>t</text><g transform="matrix(45.8333,0,0,45.8333,394.146,79.0031)"></g><text x="298.16px" y="79.003px" style="font-family:'Calibri', sans-serif;font-size:45.833px;fill:#fff;">Righ<tspan x="378.794px " y="79.003px ">t</tspan></text></g></svg>